<mxfile host="app.diagrams.net" modified="2023-11-27T13:39:19.439Z" agent="Mozilla/5.0 (Windows NT 10.0; Win64; x64) AppleWebKit/537.36 (KHTML, like Gecko) Chrome/119.0.0.0 Safari/537.36" etag="l6e49oJQBqcbGM9z6q0e" version="22.1.4" type="device">
  <diagram name="Page-1" id="e7e014a7-5840-1c2e-5031-d8a46d1fe8dd">
    <mxGraphModel dx="1434" dy="790" grid="1" gridSize="10" guides="1" tooltips="1" connect="1" arrows="1" fold="1" page="1" pageScale="1" pageWidth="1169" pageHeight="826" background="none" math="0" shadow="0">
      <root>
        <mxCell id="0" />
        <mxCell id="1" parent="0" />
        <mxCell id="2" value="Farmer" style="swimlane;whiteSpace=wrap" parent="1" vertex="1">
          <mxGeometry x="164.5" y="128" width="205.5" height="432" as="geometry" />
        </mxCell>
        <mxCell id="5" value="" style="ellipse;shape=startState;fillColor=#000000;strokeColor=#ff0000;" parent="2" vertex="1">
          <mxGeometry x="87.75" y="52" width="30" height="30" as="geometry" />
        </mxCell>
        <mxCell id="6" value="" style="edgeStyle=elbowEdgeStyle;elbow=horizontal;verticalAlign=bottom;endArrow=open;endSize=8;strokeColor=#FF0000;endFill=1;rounded=0" parent="2" source="5" target="7" edge="1">
          <mxGeometry x="100" y="40" as="geometry">
            <mxPoint x="102.75" y="110" as="targetPoint" />
          </mxGeometry>
        </mxCell>
        <mxCell id="7" value="Harvest Item" style="" parent="2" vertex="1">
          <mxGeometry x="47.75" y="102" width="110" height="50" as="geometry" />
        </mxCell>
        <mxCell id="8" value="Process Item" style="" parent="2" vertex="1">
          <mxGeometry x="47.75" y="182" width="110" height="50" as="geometry" />
        </mxCell>
        <mxCell id="9" value="" style="endArrow=open;strokeColor=#FF0000;endFill=1;rounded=0" parent="2" source="7" target="8" edge="1">
          <mxGeometry relative="1" as="geometry" />
        </mxCell>
        <mxCell id="10" value="Pack Item" style="" parent="2" vertex="1">
          <mxGeometry x="47.75" y="262" width="110" height="50" as="geometry" />
        </mxCell>
        <mxCell id="11" value="" style="endArrow=open;strokeColor=#FF0000;endFill=1;rounded=0" parent="2" source="8" target="10" edge="1">
          <mxGeometry relative="1" as="geometry" />
        </mxCell>
        <mxCell id="5b5dv4eadd2WkGE78TV6-47" value="Sell Item" style="" vertex="1" parent="2">
          <mxGeometry x="47.75" y="342" width="110" height="50" as="geometry" />
        </mxCell>
        <mxCell id="20" value="" style="endArrow=open;strokeColor=#FF0000;endFill=1;rounded=0" parent="2" source="10" target="5b5dv4eadd2WkGE78TV6-47" edge="1">
          <mxGeometry relative="1" as="geometry" />
        </mxCell>
        <mxCell id="3" value="Distributor" style="swimlane;whiteSpace=wrap" parent="1" vertex="1">
          <mxGeometry x="370" y="128" width="180" height="432" as="geometry" />
        </mxCell>
        <mxCell id="15" value="Buy Item" style="" parent="3" vertex="1">
          <mxGeometry x="35" y="102" width="110" height="50" as="geometry" />
        </mxCell>
        <mxCell id="16" value="Ship Item" style="" parent="3" vertex="1">
          <mxGeometry x="35" y="182" width="110" height="50" as="geometry" />
        </mxCell>
        <mxCell id="17" value="" style="endArrow=open;strokeColor=#FF0000;endFill=1;rounded=0" parent="3" source="15" target="16" edge="1">
          <mxGeometry relative="1" as="geometry" />
        </mxCell>
        <mxCell id="4" value="Retailer" style="swimlane;whiteSpace=wrap" parent="1" vertex="1">
          <mxGeometry x="550" y="128" width="180" height="432" as="geometry" />
        </mxCell>
        <mxCell id="18" value="Receive Item" style="" parent="4" vertex="1">
          <mxGeometry x="35" y="182" width="110" height="50" as="geometry" />
        </mxCell>
        <mxCell id="5b5dv4eadd2WkGE78TV6-41" value="Consumer" style="swimlane;whiteSpace=wrap" vertex="1" parent="1">
          <mxGeometry x="730" y="128" width="180" height="432" as="geometry" />
        </mxCell>
        <mxCell id="5b5dv4eadd2WkGE78TV6-42" value="Purchase Item" style="" vertex="1" parent="5b5dv4eadd2WkGE78TV6-41">
          <mxGeometry x="35" y="182" width="110" height="50" as="geometry" />
        </mxCell>
        <mxCell id="5b5dv4eadd2WkGE78TV6-45" value="" style="ellipse;shape=endState;fillColor=#000000;strokeColor=#ff0000" vertex="1" parent="5b5dv4eadd2WkGE78TV6-41">
          <mxGeometry x="75" y="272" width="30" height="30" as="geometry" />
        </mxCell>
        <mxCell id="5b5dv4eadd2WkGE78TV6-46" value="" style="endArrow=open;strokeColor=#FF0000;endFill=1;rounded=0" edge="1" parent="5b5dv4eadd2WkGE78TV6-41" source="5b5dv4eadd2WkGE78TV6-42" target="5b5dv4eadd2WkGE78TV6-45">
          <mxGeometry relative="1" as="geometry" />
        </mxCell>
        <mxCell id="14" value="" style="edgeStyle=elbowEdgeStyle;elbow=horizontal;verticalAlign=bottom;endArrow=open;endSize=8;strokeColor=#FF0000;endFill=1;rounded=0;" parent="1" source="5b5dv4eadd2WkGE78TV6-47" target="15" edge="1">
          <mxGeometry x="484.5" y="148" as="geometry">
            <mxPoint x="499.5" y="218" as="targetPoint" />
            <mxPoint x="519.5" y="198" as="sourcePoint" />
            <Array as="points">
              <mxPoint x="390" y="480" />
            </Array>
          </mxGeometry>
        </mxCell>
        <mxCell id="19" value="" style="endArrow=open;strokeColor=#FF0000;endFill=1;rounded=0;" parent="1" source="16" target="18" edge="1">
          <mxGeometry relative="1" as="geometry" />
        </mxCell>
        <mxCell id="5b5dv4eadd2WkGE78TV6-44" value="" style="edgeStyle=none;strokeColor=#FF0000;endArrow=open;endFill=1;rounded=0" edge="1" parent="1" target="5b5dv4eadd2WkGE78TV6-42" source="18">
          <mxGeometry width="100" height="100" relative="1" as="geometry">
            <mxPoint x="700" y="557.5" as="sourcePoint" />
            <mxPoint x="820" y="557.5" as="targetPoint" />
          </mxGeometry>
        </mxCell>
      </root>
    </mxGraphModel>
  </diagram>
</mxfile>
